<svg id="svg" version="1.1" xmlns="http://www.w3.org/2000/svg" xmlns:xlink="http://www.w3.org/1999/xlink" width="400" height="400" viewBox="0, 0, 400,400"><g id="svgg"><path id="path0" d="M232.242 109.091 C 232.151 109.328,232.051 146.079,232.020 190.761 L 231.964 272.000 247.983 272.000 L 264.001 272.000 263.917 190.417 L 263.833 108.833 248.120 108.747 C 235.521 108.677,232.374 108.746,232.242 109.091 " stroke="none" fill="#d4441c" fill-rule="evenodd"></path><path id="path1" d="M186.667 157.833 L 186.667 239.333 199.449 239.333 C 206.479 239.333,213.604 239.236,215.282 239.117 L 218.333 238.900 218.333 157.617 L 218.333 76.333 202.500 76.333 L 186.667 76.333 186.667 157.833 M171.000 322.298 L 171.000 336.333 175.917 336.319 C 184.517 336.293,185.438 335.609,185.611 329.113 C 185.732 324.571,185.473 323.421,184.086 322.329 L 183.262 321.681 184.118 320.664 C 185.189 319.391,185.434 318.106,185.285 314.537 C 185.071 309.431,183.780 308.551,176.250 308.382 L 171.000 308.263 171.000 322.298 M198.477 308.646 C 194.210 309.667,193.833 310.777,193.833 322.333 C 193.833 335.415,194.204 336.017,202.417 336.277 L 206.667 336.412 206.667 334.873 L 206.667 333.333 202.917 333.326 C 196.942 333.314,197.000 333.421,197.000 322.371 C 197.000 311.255,196.956 311.333,203.150 311.333 L 206.667 311.333 206.667 309.833 L 206.667 308.333 203.083 308.367 C 201.112 308.386,199.040 308.512,198.477 308.646 M215.333 322.333 L 215.333 336.333 217.000 336.333 L 218.667 336.333 218.667 330.000 L 218.667 323.667 223.167 323.667 L 227.667 323.667 227.667 322.167 L 227.667 320.667 223.167 320.667 L 218.667 320.667 218.667 316.000 L 218.667 311.333 223.667 311.333 L 228.667 311.333 228.667 309.833 L 228.667 308.333 222.000 308.333 L 215.333 308.333 215.333 322.333 M181.309 312.212 C 181.881 312.939,182.000 313.563,182.000 315.833 C 182.000 319.766,181.406 320.333,177.288 320.333 L 174.333 320.333 174.333 315.833 L 174.333 311.333 177.476 311.333 C 180.474 311.333,180.650 311.374,181.309 312.212 M181.515 324.152 C 182.280 324.916,182.333 325.198,182.333 328.472 C 182.333 333.159,182.164 333.333,177.604 333.333 L 174.333 333.333 174.333 328.333 L 174.333 323.333 177.515 323.333 C 180.449 323.333,180.761 323.397,181.515 324.152 " stroke="none" fill="#043745" fill-rule="evenodd"></path><path id="path2" d="M0.000 200.000 L 0.000 400.000 200.000 400.000 L 400.000 400.000 400.000 200.000 L 400.000 0.000 200.000 0.000 L 0.000 0.000 0.000 200.000 M173.333 125.500 L 173.333 207.000 157.500 207.000 C 147.185 207.000,141.657 206.884,141.639 206.667 C 141.623 206.483,141.611 173.258,141.611 132.833 C 141.611 92.408,141.623 55.883,141.639 51.667 L 141.667 44.000 157.500 44.000 L 173.333 44.000 173.333 125.500 M218.667 157.667 L 218.667 239.333 216.500 239.333 L 214.333 239.333 214.333 246.167 L 214.333 253.000 198.333 253.000 L 182.333 253.000 182.333 171.516 L 182.333 90.032 184.417 89.933 L 186.500 89.833 186.542 83.083 C 186.565 79.371,186.602 76.258,186.625 76.167 C 186.648 76.075,193.867 76.000,202.667 76.000 L 218.667 76.000 218.667 157.667 M264.000 190.317 L 264.000 271.968 261.917 272.067 L 259.833 272.167 259.833 279.000 L 259.833 285.833 243.749 285.920 L 227.665 286.006 227.749 204.253 L 227.833 122.500 229.917 122.513 L 232.000 122.527 232.000 115.597 L 232.000 108.667 248.000 108.667 L 264.000 108.667 264.000 190.317 M182.672 309.083 C 185.810 310.674,186.815 317.057,184.470 320.512 L 183.642 321.733 184.488 322.579 C 185.747 323.838,186.095 325.473,185.948 329.442 C 185.725 335.475,184.858 336.124,176.810 336.278 L 171.000 336.388 171.000 322.361 L 171.000 308.333 176.096 308.333 C 180.720 308.333,181.329 308.403,182.672 309.083 M206.667 309.805 L 206.667 311.276 202.804 311.388 C 199.046 311.497,198.919 311.525,198.137 312.435 L 197.333 313.371 197.333 322.333 L 197.333 331.296 198.137 332.231 C 198.919 333.141,199.046 333.170,202.804 333.279 L 206.667 333.391 206.667 334.862 L 206.667 336.333 202.583 336.326 C 194.207 336.311,193.667 335.463,193.667 322.333 C 193.667 309.204,194.207 308.356,202.583 308.341 L 206.667 308.333 206.667 309.805 M228.667 309.833 L 228.667 311.333 223.667 311.333 L 218.667 311.333 218.667 316.000 L 218.667 320.667 223.167 320.667 L 227.667 320.667 227.667 322.167 L 227.667 323.667 223.167 323.667 L 218.667 323.667 218.667 330.000 L 218.667 336.333 216.833 336.333 L 215.000 336.333 215.000 322.333 L 215.000 308.333 221.833 308.333 L 228.667 308.333 228.667 309.833 M174.667 315.834 L 174.667 320.402 177.491 320.284 C 181.448 320.120,181.833 319.710,181.833 315.668 C 181.833 311.727,181.650 311.539,177.655 311.384 L 174.667 311.267 174.667 315.834 M174.667 328.366 L 174.667 333.398 177.822 333.282 C 181.965 333.131,182.128 332.973,182.284 328.972 C 182.475 324.069,181.801 323.333,177.117 323.333 L 174.667 323.333 174.667 328.366 " stroke="none" fill="#fcfcfc" fill-rule="evenodd"></path><path id="path3" d="M141.639 51.667 C 141.623 55.883,141.611 92.408,141.611 132.833 C 141.611 173.258,141.623 206.483,141.639 206.667 C 141.657 206.884,147.185 207.000,157.500 207.000 L 173.333 207.000 173.333 125.500 L 173.333 44.000 157.500 44.000 L 141.667 44.000 141.639 51.667 M186.551 76.250 C 186.466 76.387,193.582 76.460,202.365 76.410 L 218.333 76.321 218.333 157.610 L 218.333 238.900 215.282 239.117 C 213.604 239.236,206.479 239.333,199.449 239.333 L 186.667 239.333 186.667 164.583 L 186.668 89.833 184.501 89.945 L 182.333 90.057 182.333 171.528 L 182.333 253.000 198.333 253.000 L 214.333 253.000 214.333 246.167 L 214.333 239.333 216.500 239.333 L 218.667 239.333 218.667 157.667 L 218.667 76.000 202.686 76.000 C 193.897 76.000,186.636 76.112,186.551 76.250 M174.465 315.833 C 174.465 318.400,174.518 319.406,174.581 318.069 C 174.645 316.732,174.644 314.632,174.580 313.402 C 174.516 312.173,174.464 313.267,174.465 315.833 M185.440 315.667 C 185.440 316.858,185.501 317.346,185.574 316.750 C 185.648 316.154,185.648 315.179,185.574 314.583 C 185.501 313.987,185.440 314.475,185.440 315.667 M197.146 322.333 C 197.146 327.192,197.192 329.179,197.249 326.750 C 197.306 324.321,197.306 320.346,197.249 317.917 C 197.192 315.487,197.146 317.475,197.146 322.333 M174.467 328.333 C 174.467 331.175,174.519 332.337,174.581 330.917 C 174.644 329.496,174.644 327.171,174.581 325.750 C 174.519 324.329,174.467 325.492,174.467 328.333 M185.790 328.333 C 185.790 330.258,185.845 331.046,185.912 330.083 C 185.980 329.121,185.980 327.546,185.912 326.583 C 185.845 325.621,185.790 326.408,185.790 328.333 " stroke="none" fill="#98cac5" fill-rule="evenodd"></path><path id="path4" d="M227.820 122.624 C 227.736 122.709,227.667 159.504,227.667 204.392 L 227.667 286.006 243.748 285.920 L 259.829 285.833 259.835 278.917 L 259.841 272.000 245.921 272.000 L 232.001 272.000 231.917 197.257 L 231.833 122.515 229.904 122.493 C 228.842 122.480,227.905 122.540,227.820 122.624 " stroke="none" fill="#eca48c" fill-rule="evenodd"></path></g></svg>