<?xml version="1.0" encoding="UTF-8" standalone="no"?>
<!DOCTYPE svg PUBLIC "-//W3C//DTD SVG 1.0//EN" "http://www.w3.org/TR/2001/PR-SVG-20010719/DTD/svg10.dtd">
<svg width="97cm" height="23cm" viewBox="34 -58 1938 448" xmlns="http://www.w3.org/2000/svg" xmlns:xlink="http://www.w3.org/1999/xlink">
  <g>
    <rect style="fill: #ffffff" x="715.012" y="144.201" width="194.8" height="28"/>
    <rect style="fill: none; fill-opacity:0; stroke-width: 2; stroke: #000000" x="715.012" y="144.201" width="194.8" height="28"/>
    <text font-size="16" style="fill: #000000;text-anchor:middle;font-family:Source Code Pro;font-style:normal;font-weight:700" x="812.412" y="164.201">Project</text>
    <rect style="fill: #ffffff" x="715.012" y="172.201" width="194.8" height="52"/>
    <rect style="fill: none; fill-opacity:0; stroke-width: 2; stroke: #000000" x="715.012" y="172.201" width="194.8" height="52"/>
    <text font-size="12.8" style="fill: #000000;text-anchor:start;font-family:Source Code Pro;font-style:normal;font-weight:normal" x="718.012" y="187.001">+topicList: List (Topic)</text>
    <text font-size="12.8" style="fill: #000000;text-anchor:start;font-family:Source Code Pro;font-style:normal;font-weight:normal" x="718.012" y="203.001">+name: String</text>
    <text font-size="12.8" style="fill: #000000;text-anchor:start;font-family:Source Code Pro;font-style:normal;font-weight:normal" x="718.012" y="219.001">+id: UUID</text>
  </g>
  <g>
    <rect style="fill: #ffffff" x="1290.77" y="131.813" width="125.5" height="28"/>
    <rect style="fill: none; fill-opacity:0; stroke-width: 2; stroke: #000000" x="1290.77" y="131.813" width="125.5" height="28"/>
    <text font-size="16" style="fill: #000000;text-anchor:middle;font-family:Source Code Pro;font-style:normal;font-weight:700" x="1353.52" y="151.813">Modification</text>
    <rect style="fill: #ffffff" x="1290.77" y="159.813" width="125.5" height="36"/>
    <rect style="fill: none; fill-opacity:0; stroke-width: 2; stroke: #000000" x="1290.77" y="159.813" width="125.5" height="36"/>
    <text font-size="12.8" style="fill: #000000;text-anchor:start;font-family:Source Code Pro;font-style:normal;font-weight:normal" x="1293.77" y="174.613">+author: String</text>
    <text font-size="12.8" style="fill: #000000;text-anchor:start;font-family:Source Code Pro;font-style:normal;font-weight:normal" x="1293.77" y="190.613">+date: DateTime</text>
  </g>
  <g>
    <rect style="fill: #ffffff" x="709.443" y="-56.8101" width="86.8" height="28"/>
    <rect style="fill: none; fill-opacity:0; stroke-width: 2; stroke: #000000" x="709.443" y="-56.8101" width="86.8" height="28"/>
    <text font-size="16" style="fill: #000000;text-anchor:middle;font-family:Source Code Pro;font-style:normal;font-weight:700" x="752.843" y="-36.8101">Template</text>
    <rect style="fill: #ffffff" x="709.443" y="-28.8101" width="86.8" height="8"/>
    <rect style="fill: none; fill-opacity:0; stroke-width: 2; stroke: #000000" x="709.443" y="-28.8101" width="86.8" height="8"/>
  </g>
  <g>
    <rect style="fill: #ffffff" x="1026.86" y="132.358" width="248.7" height="28"/>
    <rect style="fill: none; fill-opacity:0; stroke-width: 2; stroke: #000000" x="1026.86" y="132.358" width="248.7" height="28"/>
    <text font-size="16" style="fill: #000000;text-anchor:middle;font-family:Source Code Pro;font-style:normal;font-weight:700" x="1151.21" y="152.358">Topic</text>
    <rect style="fill: #ffffff" x="1026.86" y="160.358" width="248.7" height="228"/>
    <rect style="fill: none; fill-opacity:0; stroke-width: 2; stroke: #000000" x="1026.86" y="160.358" width="248.7" height="228"/>
    <text font-size="12.8" style="fill: #000000;text-anchor:start;font-family:Source Code Pro;font-style:normal;font-weight:normal" x="1029.86" y="175.158">+id: UUID</text>
    <text font-size="12.8" style="fill: #000000;text-anchor:start;font-family:Source Code Pro;font-style:normal;font-weight:normal" x="1029.86" y="191.158">+type: TopicType</text>
    <text font-size="12.8" style="fill: #000000;text-anchor:start;font-family:Source Code Pro;font-style:normal;font-weight:normal" x="1029.86" y="207.158">+status: TopicStatus</text>
    <text font-size="12.8" style="fill: #000000;text-anchor:start;font-family:Source Code Pro;font-style:normal;font-weight:normal" x="1029.86" y="223.158">+title: String</text>
    <text font-size="12.8" style="fill: #000000;text-anchor:start;font-family:Source Code Pro;font-style:normal;font-weight:normal" x="1029.86" y="239.158">+refs: List (String)</text>
    <text font-size="12.8" style="fill: #000000;text-anchor:start;font-family:Source Code Pro;font-style:normal;font-weight:normal" x="1029.86" y="255.158">+priority: TopicPriority</text>
    <text font-size="12.8" style="fill: #000000;text-anchor:start;font-family:Source Code Pro;font-style:normal;font-weight:normal" x="1029.86" y="271.158">+index: Integer</text>
    <text font-size="12.8" style="fill: #000000;text-anchor:start;font-family:Source Code Pro;font-style:normal;font-weight:normal" x="1029.86" y="287.158">+labels: List (String)</text>
    <text font-size="12.8" style="fill: #000000;text-anchor:start;font-family:Source Code Pro;font-style:normal;font-weight:normal" x="1029.86" y="303.158">+creation: Modification</text>
    <text font-size="12.8" style="fill: #000000;text-anchor:start;font-family:Source Code Pro;font-style:normal;font-weight:normal" x="1029.86" y="319.158">+lastModification: Modification</text>
    <text font-size="12.8" style="fill: #000000;text-anchor:start;font-family:Source Code Pro;font-style:normal;font-weight:normal" x="1029.86" y="335.158">+dueDate: DateTime</text>
    <text font-size="12.8" style="fill: #000000;text-anchor:start;font-family:Source Code Pro;font-style:normal;font-weight:normal" x="1029.86" y="351.158">+assignee: String</text>
    <text font-size="12.8" style="fill: #000000;text-anchor:start;font-family:Source Code Pro;font-style:normal;font-weight:normal" x="1029.86" y="367.158">+description: String</text>
    <text font-size="12.8" style="fill: #000000;text-anchor:start;font-family:Source Code Pro;font-style:normal;font-weight:normal" x="1029.86" y="383.158">+Stage: TopicStage</text>
  </g>
  <g>
    <polyline style="fill: none; fill-opacity:0; stroke-width: 2; stroke: #000000" points="1301.74,260.358 1353.52,260.358 1353.52,196.821 "/>
    <polygon style="fill: #ffffff" points="1276.57,260.358 1290.57,255.558 1304.57,260.358 1290.57,265.158 "/>
    <polygon style="fill: none; fill-opacity:0; stroke-width: 2; stroke: #000000" points="1276.57,260.358 1290.57,255.558 1304.57,260.358 1290.57,265.158 "/>
  </g>
  <g>
    <rect style="fill: #ffffff" x="1561.21" y="132.365" width="294.9" height="28"/>
    <rect style="fill: none; fill-opacity:0; stroke-width: 2; stroke: #000000" x="1561.21" y="132.365" width="294.9" height="28"/>
    <text font-size="16" style="fill: #000000;text-anchor:middle;font-family:Source Code Pro;font-style:normal;font-weight:700" x="1708.66" y="152.365">SchemaConstraint</text>
    <rect style="fill: #ffffff" x="1561.21" y="160.365" width="294.9" height="36"/>
    <rect style="fill: none; fill-opacity:0; stroke-width: 2; stroke: #000000" x="1561.21" y="160.365" width="294.9" height="36"/>
    <text font-size="12.8" style="fill: #000000;text-anchor:start;font-family:Source Code Pro;font-style:normal;font-weight:normal" x="1564.21" y="175.165">+element: String</text>
    <text font-size="12.8" style="fill: #000000;text-anchor:start;font-family:Source Code Pro;font-style:normal;font-weight:normal" x="1564.21" y="191.165">+validValues: List (String)</text>
    <rect style="fill: #ffffff" x="1561.21" y="196.365" width="294.9" height="20"/>
    <rect style="fill: none; fill-opacity:0; stroke-width: 2; stroke: #000000" x="1561.21" y="196.365" width="294.9" height="20"/>
    <text font-size="12.8" style="fill: #000000;text-anchor:start;font-family:Source Code Pro;font-style:normal;font-weight:normal" x="1564.21" y="211.165">+TopicType(in type:String): TopicType</text>
  </g>
  <g>
    <rect style="fill: #ffffff" x="1472.71" y="329.292" width="115.6" height="28"/>
    <rect style="fill: none; fill-opacity:0; stroke-width: 2; stroke: #000000" x="1472.71" y="329.292" width="115.6" height="28"/>
    <text font-size="16" style="fill: #000000;text-anchor:middle;font-family:Source Code Pro;font-style:normal;font-weight:700" x="1530.51" y="349.292">TopicStatus</text>
    <rect style="fill: #ffffff" x="1472.71" y="357.292" width="115.6" height="8"/>
    <rect style="fill: none; fill-opacity:0; stroke-width: 2; stroke: #000000" x="1472.71" y="357.292" width="115.6" height="8"/>
  </g>
  <g>
    <rect style="fill: #ffffff" x="1864.92" y="330.337" width="106" height="28"/>
    <rect style="fill: none; fill-opacity:0; stroke-width: 2; stroke: #000000" x="1864.92" y="330.337" width="106" height="28"/>
    <text font-size="16" style="fill: #000000;text-anchor:middle;font-family:Source Code Pro;font-style:normal;font-weight:700" x="1917.92" y="350.337">TopicStage</text>
    <rect style="fill: #ffffff" x="1864.92" y="358.337" width="106" height="8"/>
    <rect style="fill: none; fill-opacity:0; stroke-width: 2; stroke: #000000" x="1864.92" y="358.337" width="106" height="8"/>
  </g>
  <g>
    <rect style="fill: #ffffff" x="1752.87" y="329.603" width="96.4" height="28"/>
    <rect style="fill: none; fill-opacity:0; stroke-width: 2; stroke: #000000" x="1752.87" y="329.603" width="96.4" height="28"/>
    <text font-size="16" style="fill: #000000;text-anchor:middle;font-family:Source Code Pro;font-style:normal;font-weight:700" x="1801.07" y="349.603">TopicType</text>
    <rect style="fill: #ffffff" x="1752.87" y="357.603" width="96.4" height="8"/>
    <rect style="fill: none; fill-opacity:0; stroke-width: 2; stroke: #000000" x="1752.87" y="357.603" width="96.4" height="8"/>
  </g>
  <g>
    <rect style="fill: #ffffff" x="1602.65" y="329.424" width="134.8" height="28"/>
    <rect style="fill: none; fill-opacity:0; stroke-width: 2; stroke: #000000" x="1602.65" y="329.424" width="134.8" height="28"/>
    <text font-size="16" style="fill: #000000;text-anchor:middle;font-family:Source Code Pro;font-style:normal;font-weight:700" x="1670.05" y="349.424">TopicPriority</text>
    <rect style="fill: #ffffff" x="1602.65" y="357.424" width="134.8" height="8"/>
    <rect style="fill: none; fill-opacity:0; stroke-width: 2; stroke: #000000" x="1602.65" y="357.424" width="134.8" height="8"/>
  </g>
  <g>
    <polyline style="fill: none; fill-opacity:0; stroke-width: 2; stroke: #000000" points="1708.66,235.606 1708.66,280.826 1530.51,280.826 1530.51,328.283 "/>
    <polygon style="fill: #ffffff" points="1716.66,235.606 1708.66,219.606 1700.66,235.606 "/>
    <polygon style="fill: none; fill-opacity:0; stroke-width: 2; stroke: #000000" points="1716.66,235.606 1708.66,219.606 1700.66,235.606 "/>
  </g>
  <g>
    <polyline style="fill: none; fill-opacity:0; stroke-width: 2; stroke: #000000" points="1708.66,235.606 1708.66,280.892 1670.05,280.892 1670.05,328.415 "/>
    <polygon style="fill: #ffffff" points="1716.66,235.606 1708.66,219.606 1700.66,235.606 "/>
    <polygon style="fill: none; fill-opacity:0; stroke-width: 2; stroke: #000000" points="1716.66,235.606 1708.66,219.606 1700.66,235.606 "/>
  </g>
  <g>
    <polyline style="fill: none; fill-opacity:0; stroke-width: 2; stroke: #000000" points="1708.66,235.606 1708.66,280.982 1801.07,280.982 1801.07,328.593 "/>
    <polygon style="fill: #ffffff" points="1716.66,235.606 1708.66,219.606 1700.66,235.606 "/>
    <polygon style="fill: none; fill-opacity:0; stroke-width: 2; stroke: #000000" points="1716.66,235.606 1708.66,219.606 1700.66,235.606 "/>
  </g>
  <g>
    <polyline style="fill: none; fill-opacity:0; stroke-width: 2; stroke: #000000" points="1708.66,234.601 1708.66,280.846 1917.92,280.846 1917.92,329.328 "/>
    <polygon style="fill: #ffffff" points="1716.66,234.601 1708.66,218.601 1700.66,234.601 "/>
    <polygon style="fill: none; fill-opacity:0; stroke-width: 2; stroke: #000000" points="1716.66,234.601 1708.66,218.601 1700.66,234.601 "/>
  </g>
  <g>
    <polyline style="fill: none; fill-opacity:0; stroke-width: 2; stroke: #000000" points="1301.74,260.358 1425.39,260.358 1425.39,174.365 1560.2,174.365 "/>
    <polygon style="fill: #ffffff" points="1276.57,260.358 1290.57,255.558 1304.57,260.358 1290.57,265.158 "/>
    <polygon style="fill: none; fill-opacity:0; stroke-width: 2; stroke: #000000" points="1276.57,260.358 1290.57,255.558 1304.57,260.358 1290.57,265.158 "/>
  </g>
  <g>
    <polyline style="fill: none; fill-opacity:0; stroke-width: 2; stroke: #000000" points="935.99,184.201 975.337,184.201 975.337,260.358 1025.86,260.358 "/>
    <polygon style="fill: #ffffff" points="910.818,184.201 924.818,179.401 938.818,184.201 924.818,189.001 "/>
    <polygon style="fill: none; fill-opacity:0; stroke-width: 2; stroke: #000000" points="910.818,184.201 924.818,179.401 938.818,184.201 924.818,189.001 "/>
    <text font-size="12.7998" style="fill: #000000;text-anchor:start;font-family:monospace;font-style:normal;font-weight:normal" x="942.818" y="180.201">n</text>
    <text font-size="12.7998" style="fill: #000000;text-anchor:end;font-family:monospace;font-style:normal;font-weight:normal" x="1021.86" y="256.358">1</text>
  </g>
  <g>
    <rect style="fill: #ffffff" x="96.1765" y="130.386" width="96.4" height="28"/>
    <rect style="fill: none; fill-opacity:0; stroke-width: 2; stroke: #000000" x="96.1765" y="130.386" width="96.4" height="28"/>
    <text font-size="16" style="fill: #000000;text-anchor:middle;font-family:Source Code Pro;font-style:normal;font-weight:700" x="144.376" y="150.386">Viewpoint</text>
    <rect style="fill: #ffffff" x="96.1765" y="158.386" width="96.4" height="8"/>
    <rect style="fill: none; fill-opacity:0; stroke-width: 2; stroke: #000000" x="96.1765" y="158.386" width="96.4" height="8"/>
  </g>
  <g>
    <rect style="fill: #ffffff" x="35.6768" y="260.885" width="217.9" height="28"/>
    <rect style="fill: none; fill-opacity:0; stroke-width: 2; stroke: #000000" x="35.6768" y="260.885" width="217.9" height="28"/>
    <text font-size="16" style="fill: #000000;text-anchor:middle;font-family:Source Code Pro;font-style:normal;font-weight:700" x="144.627" y="280.885">Comment</text>
    <rect style="fill: #ffffff" x="35.6768" y="288.885" width="217.9" height="84"/>
    <rect style="fill: none; fill-opacity:0; stroke-width: 2; stroke: #000000" x="35.6768" y="288.885" width="217.9" height="84"/>
    <text font-size="12.8" style="fill: #000000;text-anchor:start;font-family:Source Code Pro;font-style:normal;font-weight:normal" x="38.6768" y="303.685">+date: DateTime</text>
    <text font-size="12.8" style="fill: #000000;text-anchor:start;font-family:Source Code Pro;font-style:normal;font-weight:normal" x="38.6768" y="319.685">+author: String</text>
    <text font-size="12.8" style="fill: #000000;text-anchor:start;font-family:Source Code Pro;font-style:normal;font-weight:normal" x="38.6768" y="335.685">+comment: String</text>
    <text font-size="12.8" style="fill: #000000;text-anchor:start;font-family:Source Code Pro;font-style:normal;font-weight:normal" x="38.6768" y="351.685">+viewpoint: Viewpoint</text>
    <text font-size="12.8" style="fill: #000000;text-anchor:start;font-family:Source Code Pro;font-style:normal;font-weight:normal" x="38.6768" y="367.685">+modification: Modification</text>
  </g>
  <g>
    <polyline style="fill: none; fill-opacity:0; stroke-width: 2; stroke: #000000" points="144.376,167.372 144.376,213.137 144.627,213.137 144.627,259.882 "/>
    <text font-size="12.7998" style="fill: #000000;text-anchor:start;font-family:monospace;font-style:normal;font-weight:normal" x="148.376" y="179.372">1</text>
    <text font-size="12.7998" style="fill: #000000;text-anchor:start;font-family:monospace;font-style:normal;font-weight:normal" x="148.627" y="255.882">n</text>
  </g>
  <g>
    <rect style="fill: #ffffff" x="364.175" y="108.386" width="194.8" height="28"/>
    <rect style="fill: none; fill-opacity:0; stroke-width: 2; stroke: #000000" x="364.175" y="108.386" width="194.8" height="28"/>
    <text font-size="16" style="fill: #000000;text-anchor:middle;font-family:Source Code Pro;font-style:normal;font-weight:700" x="461.575" y="128.386">Camera</text>
    <rect style="fill: #ffffff" x="364.175" y="136.386" width="194.8" height="52"/>
    <rect style="fill: none; fill-opacity:0; stroke-width: 2; stroke: #000000" x="364.175" y="136.386" width="194.8" height="52"/>
    <text font-size="12.8" style="fill: #000000;text-anchor:start;font-family:Source Code Pro;font-style:normal;font-weight:normal" x="367.175" y="151.186">+viewPoint: Location</text>
    <text font-size="12.8" style="fill: #000000;text-anchor:start;font-family:Source Code Pro;font-style:normal;font-weight:normal" x="367.175" y="167.186">+direction: Angle/Vector</text>
    <text font-size="12.8" style="fill: #000000;text-anchor:start;font-family:Source Code Pro;font-style:normal;font-weight:normal" x="367.175" y="183.186">+upVector: Vector</text>
  </g>
  <g>
    <rect style="fill: #ffffff" x="300.676" y="253.885" width="202.5" height="28"/>
    <rect style="fill: none; fill-opacity:0; stroke-width: 2; stroke: #000000" x="300.676" y="253.885" width="202.5" height="28"/>
    <text font-size="16" style="fill: #000000;text-anchor:middle;font-family:Source Code Pro;font-style:normal;font-weight:700" x="401.926" y="273.885">OrthogonalCamera</text>
    <rect style="fill: #ffffff" x="300.676" y="281.885" width="202.5" height="20"/>
    <rect style="fill: none; fill-opacity:0; stroke-width: 2; stroke: #000000" x="300.676" y="281.885" width="202.5" height="20"/>
    <text font-size="12.8" style="fill: #000000;text-anchor:start;font-family:Source Code Pro;font-style:normal;font-weight:normal" x="303.676" y="296.685">+viewToWorldScale: Double</text>
  </g>
  <g>
    <rect style="fill: #ffffff" x="515.424" y="256.285" width="210.2" height="28"/>
    <rect style="fill: none; fill-opacity:0; stroke-width: 2; stroke: #000000" x="515.424" y="256.285" width="210.2" height="28"/>
    <text font-size="16" style="fill: #000000;text-anchor:middle;font-family:Source Code Pro;font-style:normal;font-weight:700" x="620.524" y="276.285">PerspectiveCamera</text>
    <rect style="fill: #ffffff" x="515.424" y="284.285" width="210.2" height="20"/>
    <rect style="fill: none; fill-opacity:0; stroke-width: 2; stroke: #000000" x="515.424" y="284.285" width="210.2" height="20"/>
    <text font-size="12.8" style="fill: #000000;text-anchor:start;font-family:Source Code Pro;font-style:normal;font-weight:normal" x="518.424" y="299.085">+fieldOfView: Angle/Degree</text>
  </g>
  <g>
    <polyline style="fill: none; fill-opacity:0; stroke-width: 2; stroke: #000000" points="461.575,206.622 461.575,230.336 620.524,230.336 620.524,256.285 "/>
    <polygon style="fill: #ffffff" points="469.575,206.622 461.575,190.622 453.575,206.622 "/>
    <polygon style="fill: none; fill-opacity:0; stroke-width: 2; stroke: #000000" points="469.575,206.622 461.575,190.622 453.575,206.622 "/>
  </g>
  <g>
    <polyline style="fill: none; fill-opacity:0; stroke-width: 2; stroke: #000000" points="461.575,207.627 461.575,229.135 401.926,229.135 401.926,252.879 "/>
    <polygon style="fill: #ffffff" points="469.575,207.627 461.575,191.627 453.575,207.627 "/>
    <polygon style="fill: none; fill-opacity:0; stroke-width: 2; stroke: #000000" points="469.575,207.627 461.575,191.627 453.575,207.627 "/>
  </g>
  <g>
    <polyline style="fill: none; fill-opacity:0; stroke-width: 2; stroke: #000000" points="218.754,148.386 285.376,148.386 285.376,148.386 363.169,148.386 "/>
    <polygon style="fill: #ffffff" points="193.582,148.386 207.582,143.586 221.582,148.386 207.582,153.186 "/>
    <polygon style="fill: none; fill-opacity:0; stroke-width: 2; stroke: #000000" points="193.582,148.386 207.582,143.586 221.582,148.386 207.582,153.186 "/>
  </g>
</svg>
